<?xml version="1.0" encoding="UTF-8"?>
<svg id="Layer_2" data-name="Layer 2" xmlns="http://www.w3.org/2000/svg" viewBox="0 0 1609.73 638.21">
  <defs>
    <style>
      .cls-1 {
        fill: #9b9a9a;
        stroke: #32cd32;
        stroke-miterlimit: 10;
        stroke-width: 25px;
      }
    </style>
  </defs>
  <g id="Layer_2-2" data-name="Layer 2">
    <g id="Layer_1-2" data-name="Layer 1-2">
      <path class="cls-1" d="m1220.29,470.6c35.47,0,65.37-2.1,89.72-6.3,24.35-4.22,43.89-11.13,58.62-20.75s25.24-21.94,31.56-36.97c6.32-15.03,9.47-33.37,9.47-55.01V22.43h187.57v329.14c0,182.75-125.64,274.14-376.94,274.14h-225.44l121.74-155.11h103.71-.01Zm-258.25-245.27l-283.15,400.38h-302.99c-52.3,0-100.7-7.82-145.19-23.44-44.48-15.64-82.81-37.13-114.97-64.48-32.15-27.35-57.41-59.81-75.75-97.39-18.32-37.58-27.49-78.31-27.49-122.19s9.17-84.02,27.5-120.38c18.34-36.37,43.59-67.64,75.75-93.79s70.5-46.29,114.97-60.42c44.49-14.12,92.88-21.18,145.19-21.18h422.93l-119.94,156.9h-302.99c-25.25,0-48.7,3.61-70.34,10.82-21.64,7.21-40.28,17.29-55.92,30.21-15.62,12.93-27.95,28.41-36.97,46.45-9.02,18.03-13.52,37.87-13.52,59.52s4.36,41.32,13.08,59.06c8.71,17.73,21.04,32.92,36.97,45.54,15.93,12.62,34.72,22.4,56.36,29.31,21.63,6.91,45.08,10.36,70.34,10.36h192.03L844.82,80.13c12.63-17.42,28.57-33.06,47.8-46.88,18.44-13.26,41.59-20.16,69.43-20.72l3.61-.03c28.25,0,51.85,6.46,70.78,19.4,18.94,12.92,35.02,29,48.25,48.24l215.95,312.55-2.92.53c-25.08,4.33-52.03,5.25-77.43,5.25h-138.79l-.92,1.17c-3.48-5.02-6.95-9.93-10.33-14.71l-108.21-159.61h0Zm-201.99,400.38l112.71-155.11h173.36l-121.74,155.11h-164.34,0Zm264.84-155.11h-62.85,62.85Z"/>
    </g>
  </g>
</svg>