<?xml version="1.0" encoding="UTF-8"?>
<svg id="Layer_2" data-name="Layer 2" xmlns="http://www.w3.org/2000/svg" viewBox="0 0 50 12.39">
  <defs>
    <style>
      .cls-1, .cls-2 {
        fill: #24292e;
        stroke-width: 0px;
      }

      .cls-2 {
        fill-rule: evenodd;
      }
    </style>
  </defs>
  <g id="Layer_1-2" data-name="Layer 1">
    <g id="layer">
      <path class="cls-1" d="M30.67,9.59h-.02s0-.03.02,0h0,0ZM30.62,9.55c-.06,0-.23.03-.41.03-.55,0-.74-.25-.74-.59v-2.32h1.21c.07,0,.12-.06.12-.14v-1.23c0-.07-.06-.13-.12-.13h-1.21v-1.58c0-.06-.04-.09-.11-.09h-1.63c-.06,0-.1.04-.1.09v1.6s-.78.2-.83.21c-.06.02-.09.07-.09.12v1c0,.08.06.14.12.14h.8v2.44c0,1.81,1.24,1.99,2.09,1.99.39,0,.86-.13.93-.17.04-.02.07-.07.07-.12v-1.14c0-.06-.04-.11-.1-.13h0ZM48.23,7.93c0-1.34-.54-1.52-1.11-1.46-.44.03-.8.25-.8.25v2.61s.36.25.9.27c.76.02,1.01-.26,1.01-1.67h0ZM50,7.82c0,2.55-.82,3.28-2.25,3.28-1.21,0-1.86-.62-1.86-.62,0,0-.02.34-.07.38-.02.04-.06.06-.11.06h-1.09c-.07,0-.14-.06-.14-.13l.02-8.26c0-.07.06-.13.12-.13h1.57c.07,0,.13.06.13.13v2.8s.61-.39,1.49-.39v-.02c.87,0,2.18.33,2.18,2.89h0ZM43.62,5.17h-1.59c-.07,0-.13.06-.13.13v4.05s-.38.27-.91.28c-.42.01-.76-.32-.76-.74,0-1.01,0-3.06,0-3.59,0-.07-.06-.12-.13-.12h-1.58c-.07,0-.13.06-.13.13v3.77c0,1.62.91,2.02,2.17,2.02,1.04,0,1.87-.56,1.87-.56,0,0,.04.29.06.33.02.03.07.07.12.07h1c.08,0,.13-.06.13-.12l.02-5.51c0-.07-.06-.12-.13-.12h0ZM26.01,5.17h-1.58c-.07,0-.13.07-.13.15v5.41c0,.15.1.2.23.2h1.43c.15,0,.18-.07.18-.2v-5.43c0-.07-.07-.12-.13-.12h0ZM25.22,2.62c-.57,0-1.03.45-1.03,1.03s.45,1.03,1.03,1.03,1.01-.45,1.01-1.03-.45-1.03-1.01-1.03h0ZM37.45,2.42h-1.59c-.07,0-.13.06-.13.13v3.04h-2.42v-3.04c0-.07-.06-.13-.13-.13h-1.58c-.07,0-.13.06-.13.13v8.26c0,.07.07.13.13.13h1.58c.07,0,.13-.06.13-.13v-3.54h2.42l-.02,3.54c0,.07.06.13.13.13h1.6c.07,0,.13-.06.13-.13V2.54c0-.07-.05-.13-.12-.13h0ZM23.47,6.12v4.22s0,.08-.04.09c0,0-.93.66-2.46.66-1.85,0-4.06-.58-4.06-4.39s1.92-4.6,3.8-4.59c1.63,0,2.28.37,2.38.43.03.04.04.07.04.1l-.3,1.33c0,.07-.07.15-.15.13-.27-.08-.67-.24-1.62-.24-1.1,0-2.27.31-2.27,2.77s1.11,2.74,1.92,2.74c.69,0,.93-.08.93-.08v-1.7h-1.11c-.08,0-.14-.06-.14-.12v-1.34c0-.07.06-.12.14-.12h2.8c.08,0,.14.05.14.11h0Z"/>
      <path class="cls-2" d="M6.36,0C2.84,0,0,2.84,0,6.36c0,2.81,1.82,5.19,4.35,6.03.32.05.44-.13.44-.3,0-.15,0-.65,0-1.18-1.59.29-2.01-.39-2.14-.74-.08-.18-.38-.75-.65-.9-.23-.12-.54-.42,0-.43.5,0,.86.46.98.65.58.96,1.48.69,1.85.53.06-.41.23-.69.41-.85-1.41-.16-2.89-.71-2.89-3.14,0-.69.25-1.27.65-1.71-.07-.16-.28-.81.07-1.68,0,0,.53-.17,1.75.65.51-.14,1.05-.22,1.58-.22s1.08.08,1.58.22c1.22-.83,1.74-.65,1.74-.65.35.88.13,1.53.07,1.68.41.44.65,1.01.65,1.71,0,2.44-1.48,2.98-2.9,3.14.23.2.43.58.43,1.18,0,.85,0,1.53,0,1.74,0,.17.12.37.43.3,2.59-.88,4.33-3.3,4.33-6.03,0-3.5-2.84-6.35-6.36-6.35h0Z"/>
    </g>
  </g>
</svg>