<?xml version="1.0" encoding="UTF-8"?>
<svg id="Layer_2" data-name="Layer 2" xmlns="http://www.w3.org/2000/svg" viewBox="0 0 50 13.24">
  <defs>
    <style>
      .cls-1 {
        fill: #069;
      }

      .cls-1, .cls-2, .cls-3 {
        stroke-width: 0px;
      }

      .cls-2 {
        fill: #fff;
      }

      .cls-2, .cls-3 {
        fill-rule: evenodd;
      }

      .cls-3 {
        fill: #000;
      }
    </style>
  </defs>
  <g id="Layer_1-2" data-name="Layer 1">
    <g id="svg3070">
      <g id="layer1">
        <g id="g3019">
          <path id="path14" class="cls-1" d="M36.76.95c0-.52.44-.95.98-.95h11.28c.54,0,.98.43.98.95v11.34c0,.52-.44.95-.98.95h-11.28c-.54,0-.98-.43-.98-.95V.95Z"/>
          <path id="path16" class="cls-3" d="M0,11.15h5.4v-1.74H1.92V2.44H0s0,8.71,0,8.71Z"/>
          <path id="path18" class="cls-3" d="M8.19,10.98v-5.92h-1.92v5.92s1.92,0,1.92,0ZM7.19,4.36c.7,0,1.13-.46,1.13-1.04-.01-.59-.43-1.04-1.11-1.04s-1.13.45-1.13,1.04.43,1.04,1.1,1.04h.01Z"/>
          <path id="path20" class="cls-3" d="M9.17,10.98h1.98v-3.31c0-.18.01-.35.07-.48.14-.35.47-.72,1.02-.72.72,0,1.01.54,1.01,1.34v3.17h1.92v-3.39c0-1.82-.96-2.66-2.25-2.66-1.05,0-1.51.59-1.77,1h.01v-.87h-1.98c.03.56,0,5.92,0,5.92h0Z"/>
          <path id="path22" class="cls-3" d="M17.94,2.44h-1.92v8.71h1.92v-1.95l.48-.63,1.5,2.58h2.36l-2.52-3.73,2.21-2.54h-2.31s-1.58,2.25-1.72,2.52V2.44h0Z"/>
          <path id="path24" class="cls-3" d="M27.85,8.59c.03-.15.07-.45.07-.78,0-1.55-.79-3.13-2.86-3.13-2.22,0-3.24,1.75-3.24,3.34,0,1.97,1.25,3.2,3.42,3.2.87,0,1.67-.13,2.32-.4l-.26-1.32c-.54.18-1.09.27-1.77.27-.93,0-1.74-.38-1.81-1.24l4.13.17h0v-.12ZM23.71,7.32c.05-.51.39-1.27,1.25-1.27.9,0,1.11.81,1.11,1.27h-2.36,0Z"/>
          <path id="path26" class="cls-3" d="M32.93,2.44v2.96h-.03c-.29-.43-.91-.72-1.72-.72-1.57,0-2.94,1.25-2.93,3.39,0,1.98,1.24,3.27,2.8,3.27.84,0,1.64-.37,2.05-1.07h-.05l.08.87h1.78c-.03-.42-.05-1.15-.05-1.87V2.44h-1.92ZM32.75,8.36c0,.15-.01.31-.04.44-.12.55-.59.93-1.17.93-.83,0-1.36-.67-1.36-1.71,0-.98.46-1.78,1.38-1.78.62,0,1.05.42,1.17.95.03.11.03.24.03.36v.82h0Z"/>
          <path id="path28" class="cls-2" d="M40.77,10.98v-5.92h-1.92v5.92h1.92ZM39.84,4.36c.7,0,1.13-.46,1.13-1.04-.01-.59-.43-1.04-1.11-1.04s-1.13.45-1.13,1.04.43,1.04,1.1,1.04h.01Z"/>
          <path id="path30" class="cls-2" d="M41.92,10.98h1.98v-3.31c0-.18.01-.35.07-.48.14-.35.47-.72,1.02-.72.72,0,1.01.54,1.01,1.34v3.17h1.92v-3.39c0-1.82-.96-2.66-2.25-2.66-1.05,0-1.51.59-1.77,1h.01v-.87h-1.98c.03.56,0,5.92,0,5.92h0Z"/>
        </g>
      </g>
    </g>
  </g>
</svg>